<?xml version="1.0"?>
<svg xmlns="http://www.w3.org/2000/svg" viewBox="0 0 512 512"><g id="Layer_2" data-name="Layer 2"><g id="Adobe_copy_4" data-name="Adobe copy 4"><g id="_33" data-name="33"><path id="background" d="M440.34,34A37.7,37.7,0,0,1,478,71.66V440.34A37.7,37.7,0,0,1,440.34,478H71.66A37.7,37.7,0,0,1,34,440.34V71.66A37.7,37.7,0,0,1,71.66,34H440.34m0-34H71.66A71.66,71.66,0,0,0,0,71.66V440.34A71.66,71.66,0,0,0,71.66,512H440.34A71.66,71.66,0,0,0,512,440.34V71.66A71.66,71.66,0,0,0,440.34,0Z"/><path d="M131.14,373.42a19.94,19.94,0,0,1-19.68-19.68V155a19.94,19.94,0,0,1,19.68-19.68h89.14a19.68,19.68,0,1,1,0,39.36h-68.8v56.89h60.86a19.68,19.68,0,1,1,0,39.36H151.48v63.18h68.8a19.68,19.68,0,0,1,0,39.36Z"/><path d="M278.82,357.22v-133a19.48,19.48,0,0,1,36.55-9.43,47.73,47.73,0,0,1,29.94-10.09c31.58,0,55.23,20.67,55.23,56.56v95.93a19.52,19.52,0,0,1-39,0V267.41c0-14.39-6.12-24.64-21.83-24.64s-21.83,10.42-21.83,24.64v89.81a19.52,19.52,0,0,1-39,0Z"/></g></g></g></svg>
