<svg id="Layer_2" height="512" viewBox="0 0 512 512" width="512" xmlns="http://www.w3.org/2000/svg" data-name="Layer 2"><g id="Icon"><path id="_20" d="m362 0h-212c-82.84 0-150 67.16-150 150v212c0 82.84 67.16 150 150 150h212c82.84 0 150-67.16 150-150v-212c0-82.84-67.16-150-150-150zm100 362c0 55.14-44.86 100-100 100h-212c-55.14 0-100-44.86-100-100v-212c0-55.14 44.86-100 100-100h212c55.14 0 100 44.86 100 100zm-84.41-69.13c0 39.42-13.62 66.94-40.84 82.54-20.51 11.73-51.9 17.6-94.17 17.6-33.61 0-58.68-4.56-75.2-13.67-21.99-12.19-32.98-33.61-32.98-64.26 0-12.99 2.11-25.92 6.32-38.79 4.67-14.36 10.25-21.53 16.75-21.53s9.85 5.7 9.74 17.09c-.12 14.01 3.19 24.16 9.91 30.42 11.28 10.6 33.95 15.89 68.02 15.89 35.89 0 57.59-.23 65.11-.68 20.51-1.25 33.72-4.61 39.65-10.08 1.59-1.48 2.39-2.96 2.39-4.44 0-1.25-.63-1.88-1.88-1.88-.8 0-1.6.17-2.39.51-5.36 2.17-16.06 3.25-32.13 3.25-30.88 0-46.31-12.82-46.31-38.45 0-15.83 3.93-31.5 11.79-47 9.34-18.46 21.13-27.69 35.38-27.69 20.96 0 37.03 12.76 48.19 38.28 8.43 19.25 12.65 40.22 12.65 62.89zm-36.4-149.88c1.59 1.62 1.56 3.29-.11 5.01l-23 22.63c-1.69 1.73-3.39 1.74-5.08.03l-23.28-22.34c-1.71-2.06-1.53-4.12.54-6.18l21.36-21.7c1.82-1.94 3.76-1.94 5.81 0l23.75 22.56zm-3.76 112.96c0-3.53-2.68-7.01-8.03-10.42-4.9-2.96-9.29-4.44-13.16-4.44-10.6 0-15.89 3.93-15.89 11.79 0 4.33 6.44 6.49 19.31 6.49 11.85 0 17.77-1.14 17.77-3.42z" data-name="20"/></g></svg>